<?xml version="1.0" encoding="utf-8"?>
<!-- Generator: Adobe Illustrator 16.0.4, SVG Export Plug-In . SVG Version: 6.00 Build 0)  -->
<!DOCTYPE svg PUBLIC "-//W3C//DTD SVG 1.1//EN" "http://www.w3.org/Graphics/SVG/1.1/DTD/svg11.dtd">
<svg version="1.1" id="Layer_1" xmlns="http://www.w3.org/2000/svg" xmlns:xlink="http://www.w3.org/1999/xlink" x="0px" y="0px"
	 width="525.356px" height="402.589px" viewBox="0 0 525.356 402.589" enable-background="new 0 0 525.356 402.589"
	 xml:space="preserve">
<rect x="93.698" y="14.973" fill="none" stroke="#FFFFFF" stroke-width="0.5" stroke-linejoin="round" stroke-miterlimit="10" width="413.26" height="332.384"/>
<line fill="none" stroke="#000000" stroke-width="0.5" stroke-linejoin="round" stroke-miterlimit="10" x1="93.698" y1="347.357" x2="506.958" y2="347.357"/>
<line fill="none" stroke="#000000" stroke-width="0.5" stroke-linejoin="round" stroke-miterlimit="10" x1="93.698" y1="14.973" x2="506.958" y2="14.973"/>
<line fill="none" stroke="#000000" stroke-width="0.5" stroke-linejoin="round" stroke-miterlimit="10" x1="93.698" y1="347.357" x2="93.698" y2="14.974"/>
<line fill="none" stroke="#000000" stroke-width="0.5" stroke-linejoin="round" stroke-miterlimit="10" x1="506.958" y1="347.357" x2="506.958" y2="14.974"/>
<line fill="none" stroke="#000000" stroke-width="0.5" stroke-linejoin="round" stroke-miterlimit="10" x1="93.698" y1="347.357" x2="506.958" y2="347.357"/>
<line fill="none" stroke="#000000" stroke-width="0.5" stroke-linejoin="round" stroke-miterlimit="10" x1="93.698" y1="347.357" x2="93.698" y2="14.974"/>
<line fill="none" stroke="#000000" stroke-width="0.5" stroke-linejoin="round" stroke-miterlimit="10" x1="93.698" y1="347.357" x2="93.698" y2="344.398"/>
<line fill="none" stroke="#000000" stroke-width="0.5" stroke-linejoin="round" stroke-miterlimit="10" x1="93.698" y1="14.973" x2="93.698" y2="16.946"/>
<line fill="none" stroke="#000000" stroke-width="0.5" stroke-linejoin="round" stroke-miterlimit="10" x1="93.698" y1="347.357" x2="93.698" y2="342.425"/>
<line fill="none" stroke="#000000" stroke-width="0.5" stroke-linejoin="round" stroke-miterlimit="10" x1="93.698" y1="14.973" x2="93.698" y2="18.918"/>
<text transform="matrix(1 0 0 1 79.8906 373)" font-family="'Helvetica'" font-size="20">10</text>
<text transform="matrix(1 0 0 1 101.5894 361.1641)" font-family="'Helvetica'" font-size="13.3333">0</text>
<line fill="none" stroke="#000000" stroke-width="0.5" stroke-linejoin="round" stroke-miterlimit="10" x1="118.356" y1="347.357" x2="118.356" y2="344.398"/>
<line fill="none" stroke="#000000" stroke-width="0.5" stroke-linejoin="round" stroke-miterlimit="10" x1="118.356" y1="14.973" x2="118.356" y2="16.946"/>
<line fill="none" stroke="#000000" stroke-width="0.5" stroke-linejoin="round" stroke-miterlimit="10" x1="132.165" y1="347.357" x2="132.165" y2="344.398"/>
<line fill="none" stroke="#000000" stroke-width="0.5" stroke-linejoin="round" stroke-miterlimit="10" x1="132.165" y1="14.973" x2="132.165" y2="16.946"/>
<line fill="none" stroke="#000000" stroke-width="0.5" stroke-linejoin="round" stroke-miterlimit="10" x1="143.014" y1="347.357" x2="143.014" y2="344.398"/>
<line fill="none" stroke="#000000" stroke-width="0.5" stroke-linejoin="round" stroke-miterlimit="10" x1="143.014" y1="14.973" x2="143.014" y2="16.946"/>
<line fill="none" stroke="#000000" stroke-width="0.5" stroke-linejoin="round" stroke-miterlimit="10" x1="150.904" y1="347.357" x2="150.904" y2="344.398"/>
<line fill="none" stroke="#000000" stroke-width="0.5" stroke-linejoin="round" stroke-miterlimit="10" x1="150.904" y1="14.973" x2="150.904" y2="16.946"/>
<line fill="none" stroke="#000000" stroke-width="0.5" stroke-linejoin="round" stroke-miterlimit="10" x1="157.809" y1="347.357" x2="157.809" y2="344.398"/>
<line fill="none" stroke="#000000" stroke-width="0.5" stroke-linejoin="round" stroke-miterlimit="10" x1="157.809" y1="14.973" x2="157.809" y2="16.946"/>
<line fill="none" stroke="#000000" stroke-width="0.5" stroke-linejoin="round" stroke-miterlimit="10" x1="162.739" y1="347.357" x2="162.739" y2="344.398"/>
<line fill="none" stroke="#000000" stroke-width="0.5" stroke-linejoin="round" stroke-miterlimit="10" x1="162.739" y1="14.973" x2="162.739" y2="16.946"/>
<line fill="none" stroke="#000000" stroke-width="0.5" stroke-linejoin="round" stroke-miterlimit="10" x1="167.671" y1="347.357" x2="167.671" y2="344.398"/>
<line fill="none" stroke="#000000" stroke-width="0.5" stroke-linejoin="round" stroke-miterlimit="10" x1="167.671" y1="14.973" x2="167.671" y2="16.946"/>
<line fill="none" stroke="#000000" stroke-width="0.5" stroke-linejoin="round" stroke-miterlimit="10" x1="171.616" y1="347.357" x2="171.616" y2="344.398"/>
<line fill="none" stroke="#000000" stroke-width="0.5" stroke-linejoin="round" stroke-miterlimit="10" x1="171.616" y1="14.973" x2="171.616" y2="16.946"/>
<line fill="none" stroke="#000000" stroke-width="0.5" stroke-linejoin="round" stroke-miterlimit="10" x1="175.562" y1="347.357" x2="175.562" y2="344.398"/>
<line fill="none" stroke="#000000" stroke-width="0.5" stroke-linejoin="round" stroke-miterlimit="10" x1="175.562" y1="14.973" x2="175.562" y2="16.946"/>
<line fill="none" stroke="#000000" stroke-width="0.5" stroke-linejoin="round" stroke-miterlimit="10" x1="175.562" y1="347.357" x2="175.562" y2="342.425"/>
<line fill="none" stroke="#000000" stroke-width="0.5" stroke-linejoin="round" stroke-miterlimit="10" x1="175.562" y1="14.973" x2="175.562" y2="18.918"/>
<text transform="matrix(1 0 0 1 161.7534 373)" font-family="'Helvetica'" font-size="20">10</text>
<text transform="matrix(1 0 0 1 183.4521 361.1641)" font-family="'Helvetica'" font-size="13.3333">1</text>
<line fill="none" stroke="#000000" stroke-width="0.5" stroke-linejoin="round" stroke-miterlimit="10" x1="201.206" y1="347.357" x2="201.206" y2="344.398"/>
<line fill="none" stroke="#000000" stroke-width="0.5" stroke-linejoin="round" stroke-miterlimit="10" x1="201.206" y1="14.973" x2="201.206" y2="16.946"/>
<line fill="none" stroke="#000000" stroke-width="0.5" stroke-linejoin="round" stroke-miterlimit="10" x1="215.014" y1="347.357" x2="215.014" y2="344.398"/>
<line fill="none" stroke="#000000" stroke-width="0.5" stroke-linejoin="round" stroke-miterlimit="10" x1="215.014" y1="14.973" x2="215.014" y2="16.946"/>
<line fill="none" stroke="#000000" stroke-width="0.5" stroke-linejoin="round" stroke-miterlimit="10" x1="225.863" y1="347.357" x2="225.863" y2="344.398"/>
<line fill="none" stroke="#000000" stroke-width="0.5" stroke-linejoin="round" stroke-miterlimit="10" x1="225.863" y1="14.973" x2="225.863" y2="16.946"/>
<line fill="none" stroke="#000000" stroke-width="0.5" stroke-linejoin="round" stroke-miterlimit="10" x1="233.753" y1="347.357" x2="233.753" y2="344.398"/>
<line fill="none" stroke="#000000" stroke-width="0.5" stroke-linejoin="round" stroke-miterlimit="10" x1="233.753" y1="14.973" x2="233.753" y2="16.946"/>
<line fill="none" stroke="#000000" stroke-width="0.5" stroke-linejoin="round" stroke-miterlimit="10" x1="240.657" y1="347.357" x2="240.657" y2="344.398"/>
<line fill="none" stroke="#000000" stroke-width="0.5" stroke-linejoin="round" stroke-miterlimit="10" x1="240.657" y1="14.973" x2="240.657" y2="16.946"/>
<line fill="none" stroke="#000000" stroke-width="0.5" stroke-linejoin="round" stroke-miterlimit="10" x1="245.588" y1="347.357" x2="245.588" y2="344.398"/>
<line fill="none" stroke="#000000" stroke-width="0.5" stroke-linejoin="round" stroke-miterlimit="10" x1="245.588" y1="14.973" x2="245.588" y2="16.946"/>
<line fill="none" stroke="#000000" stroke-width="0.5" stroke-linejoin="round" stroke-miterlimit="10" x1="250.521" y1="347.357" x2="250.521" y2="344.398"/>
<line fill="none" stroke="#000000" stroke-width="0.5" stroke-linejoin="round" stroke-miterlimit="10" x1="250.521" y1="14.973" x2="250.521" y2="16.946"/>
<line fill="none" stroke="#000000" stroke-width="0.5" stroke-linejoin="round" stroke-miterlimit="10" x1="254.465" y1="347.357" x2="254.465" y2="344.398"/>
<line fill="none" stroke="#000000" stroke-width="0.5" stroke-linejoin="round" stroke-miterlimit="10" x1="254.465" y1="14.973" x2="254.465" y2="16.946"/>
<line fill="none" stroke="#000000" stroke-width="0.5" stroke-linejoin="round" stroke-miterlimit="10" x1="258.411" y1="347.357" x2="258.411" y2="344.398"/>
<line fill="none" stroke="#000000" stroke-width="0.5" stroke-linejoin="round" stroke-miterlimit="10" x1="258.411" y1="14.973" x2="258.411" y2="16.946"/>
<line fill="none" stroke="#000000" stroke-width="0.5" stroke-linejoin="round" stroke-miterlimit="10" x1="258.411" y1="347.357" x2="258.411" y2="342.425"/>
<line fill="none" stroke="#000000" stroke-width="0.5" stroke-linejoin="round" stroke-miterlimit="10" x1="258.411" y1="14.973" x2="258.411" y2="18.918"/>
<text transform="matrix(1 0 0 1 244.6025 373)" font-family="'Helvetica'" font-size="20">10</text>
<text transform="matrix(1 0 0 1 266.3018 361.1641)" font-family="'Helvetica'" font-size="13.3333">2</text>
<line fill="none" stroke="#000000" stroke-width="0.5" stroke-linejoin="round" stroke-miterlimit="10" x1="283.068" y1="347.357" x2="283.068" y2="344.398"/>
<line fill="none" stroke="#000000" stroke-width="0.5" stroke-linejoin="round" stroke-miterlimit="10" x1="283.068" y1="14.973" x2="283.068" y2="16.946"/>
<line fill="none" stroke="#000000" stroke-width="0.5" stroke-linejoin="round" stroke-miterlimit="10" x1="297.862" y1="347.357" x2="297.862" y2="344.398"/>
<line fill="none" stroke="#000000" stroke-width="0.5" stroke-linejoin="round" stroke-miterlimit="10" x1="297.862" y1="14.973" x2="297.862" y2="16.946"/>
<line fill="none" stroke="#000000" stroke-width="0.5" stroke-linejoin="round" stroke-miterlimit="10" x1="308.713" y1="347.357" x2="308.713" y2="344.398"/>
<line fill="none" stroke="#000000" stroke-width="0.5" stroke-linejoin="round" stroke-miterlimit="10" x1="308.713" y1="14.973" x2="308.713" y2="16.946"/>
<line fill="none" stroke="#000000" stroke-width="0.5" stroke-linejoin="round" stroke-miterlimit="10" x1="316.603" y1="347.357" x2="316.603" y2="344.398"/>
<line fill="none" stroke="#000000" stroke-width="0.5" stroke-linejoin="round" stroke-miterlimit="10" x1="316.603" y1="14.973" x2="316.603" y2="16.946"/>
<line fill="none" stroke="#000000" stroke-width="0.5" stroke-linejoin="round" stroke-miterlimit="10" x1="322.521" y1="347.357" x2="322.521" y2="344.398"/>
<line fill="none" stroke="#000000" stroke-width="0.5" stroke-linejoin="round" stroke-miterlimit="10" x1="322.521" y1="14.973" x2="322.521" y2="16.946"/>
<line fill="none" stroke="#000000" stroke-width="0.5" stroke-linejoin="round" stroke-miterlimit="10" x1="328.438" y1="347.357" x2="328.438" y2="344.398"/>
<line fill="none" stroke="#000000" stroke-width="0.5" stroke-linejoin="round" stroke-miterlimit="10" x1="328.438" y1="14.973" x2="328.438" y2="16.946"/>
<line fill="none" stroke="#000000" stroke-width="0.5" stroke-linejoin="round" stroke-miterlimit="10" x1="333.369" y1="347.357" x2="333.369" y2="344.398"/>
<line fill="none" stroke="#000000" stroke-width="0.5" stroke-linejoin="round" stroke-miterlimit="10" x1="333.369" y1="14.973" x2="333.369" y2="16.946"/>
<line fill="none" stroke="#000000" stroke-width="0.5" stroke-linejoin="round" stroke-miterlimit="10" x1="337.315" y1="347.357" x2="337.315" y2="344.398"/>
<line fill="none" stroke="#000000" stroke-width="0.5" stroke-linejoin="round" stroke-miterlimit="10" x1="337.315" y1="14.973" x2="337.315" y2="16.946"/>
<line fill="none" stroke="#000000" stroke-width="0.5" stroke-linejoin="round" stroke-miterlimit="10" x1="341.261" y1="347.357" x2="341.261" y2="344.398"/>
<line fill="none" stroke="#000000" stroke-width="0.5" stroke-linejoin="round" stroke-miterlimit="10" x1="341.261" y1="14.973" x2="341.261" y2="16.946"/>
<line fill="none" stroke="#000000" stroke-width="0.5" stroke-linejoin="round" stroke-miterlimit="10" x1="341.261" y1="347.357" x2="341.261" y2="342.425"/>
<line fill="none" stroke="#000000" stroke-width="0.5" stroke-linejoin="round" stroke-miterlimit="10" x1="341.261" y1="14.973" x2="341.261" y2="18.918"/>
<text transform="matrix(1 0 0 1 327.4512 373)" font-family="'Helvetica'" font-size="20">10</text>
<text transform="matrix(1 0 0 1 349.1504 361.1641)" font-family="'Helvetica'" font-size="13.3333">3</text>
<line fill="none" stroke="#000000" stroke-width="0.5" stroke-linejoin="round" stroke-miterlimit="10" x1="365.917" y1="347.357" x2="365.917" y2="344.398"/>
<line fill="none" stroke="#000000" stroke-width="0.5" stroke-linejoin="round" stroke-miterlimit="10" x1="365.917" y1="14.973" x2="365.917" y2="16.946"/>
<line fill="none" stroke="#000000" stroke-width="0.5" stroke-linejoin="round" stroke-miterlimit="10" x1="380.712" y1="347.357" x2="380.712" y2="344.398"/>
<line fill="none" stroke="#000000" stroke-width="0.5" stroke-linejoin="round" stroke-miterlimit="10" x1="380.712" y1="14.973" x2="380.712" y2="16.946"/>
<line fill="none" stroke="#000000" stroke-width="0.5" stroke-linejoin="round" stroke-miterlimit="10" x1="390.575" y1="347.357" x2="390.575" y2="344.398"/>
<line fill="none" stroke="#000000" stroke-width="0.5" stroke-linejoin="round" stroke-miterlimit="10" x1="390.575" y1="14.973" x2="390.575" y2="16.946"/>
<line fill="none" stroke="#000000" stroke-width="0.5" stroke-linejoin="round" stroke-miterlimit="10" x1="398.466" y1="347.357" x2="398.466" y2="344.398"/>
<line fill="none" stroke="#000000" stroke-width="0.5" stroke-linejoin="round" stroke-miterlimit="10" x1="398.466" y1="14.973" x2="398.466" y2="16.946"/>
<line fill="none" stroke="#000000" stroke-width="0.5" stroke-linejoin="round" stroke-miterlimit="10" x1="405.369" y1="347.357" x2="405.369" y2="344.398"/>
<line fill="none" stroke="#000000" stroke-width="0.5" stroke-linejoin="round" stroke-miterlimit="10" x1="405.369" y1="14.973" x2="405.369" y2="16.946"/>
<line fill="none" stroke="#000000" stroke-width="0.5" stroke-linejoin="round" stroke-miterlimit="10" x1="411.287" y1="347.357" x2="411.287" y2="344.398"/>
<line fill="none" stroke="#000000" stroke-width="0.5" stroke-linejoin="round" stroke-miterlimit="10" x1="411.287" y1="14.973" x2="411.287" y2="16.946"/>
<line fill="none" stroke="#000000" stroke-width="0.5" stroke-linejoin="round" stroke-miterlimit="10" x1="416.219" y1="347.357" x2="416.219" y2="344.398"/>
<line fill="none" stroke="#000000" stroke-width="0.5" stroke-linejoin="round" stroke-miterlimit="10" x1="416.219" y1="14.973" x2="416.219" y2="16.946"/>
<line fill="none" stroke="#000000" stroke-width="0.5" stroke-linejoin="round" stroke-miterlimit="10" x1="420.164" y1="347.357" x2="420.164" y2="344.398"/>
<line fill="none" stroke="#000000" stroke-width="0.5" stroke-linejoin="round" stroke-miterlimit="10" x1="420.164" y1="14.973" x2="420.164" y2="16.946"/>
<line fill="none" stroke="#000000" stroke-width="0.5" stroke-linejoin="round" stroke-miterlimit="10" x1="424.109" y1="347.357" x2="424.109" y2="344.398"/>
<line fill="none" stroke="#000000" stroke-width="0.5" stroke-linejoin="round" stroke-miterlimit="10" x1="424.109" y1="14.973" x2="424.109" y2="16.946"/>
<line fill="none" stroke="#000000" stroke-width="0.5" stroke-linejoin="round" stroke-miterlimit="10" x1="424.109" y1="347.357" x2="424.109" y2="342.425"/>
<line fill="none" stroke="#000000" stroke-width="0.5" stroke-linejoin="round" stroke-miterlimit="10" x1="424.109" y1="14.973" x2="424.109" y2="18.918"/>
<text transform="matrix(1 0 0 1 410.3018 373)" font-family="'Helvetica'" font-size="20">10</text>
<text transform="matrix(1 0 0 1 432 361.1641)" font-family="'Helvetica'" font-size="13.3333">4</text>
<line fill="none" stroke="#000000" stroke-width="0.5" stroke-linejoin="round" stroke-miterlimit="10" x1="448.768" y1="347.357" x2="448.768" y2="344.398"/>
<line fill="none" stroke="#000000" stroke-width="0.5" stroke-linejoin="round" stroke-miterlimit="10" x1="448.768" y1="14.973" x2="448.768" y2="16.946"/>
<line fill="none" stroke="#000000" stroke-width="0.5" stroke-linejoin="round" stroke-miterlimit="10" x1="463.562" y1="347.357" x2="463.562" y2="344.398"/>
<line fill="none" stroke="#000000" stroke-width="0.5" stroke-linejoin="round" stroke-miterlimit="10" x1="463.562" y1="14.973" x2="463.562" y2="16.946"/>
<line fill="none" stroke="#000000" stroke-width="0.5" stroke-linejoin="round" stroke-miterlimit="10" x1="473.425" y1="347.357" x2="473.425" y2="344.398"/>
<line fill="none" stroke="#000000" stroke-width="0.5" stroke-linejoin="round" stroke-miterlimit="10" x1="473.425" y1="14.973" x2="473.425" y2="16.946"/>
<line fill="none" stroke="#000000" stroke-width="0.5" stroke-linejoin="round" stroke-miterlimit="10" x1="481.314" y1="347.357" x2="481.314" y2="344.398"/>
<line fill="none" stroke="#000000" stroke-width="0.5" stroke-linejoin="round" stroke-miterlimit="10" x1="481.314" y1="14.973" x2="481.314" y2="16.946"/>
<line fill="none" stroke="#000000" stroke-width="0.5" stroke-linejoin="round" stroke-miterlimit="10" x1="488.219" y1="347.357" x2="488.219" y2="344.398"/>
<line fill="none" stroke="#000000" stroke-width="0.5" stroke-linejoin="round" stroke-miterlimit="10" x1="488.219" y1="14.973" x2="488.219" y2="16.946"/>
<line fill="none" stroke="#000000" stroke-width="0.5" stroke-linejoin="round" stroke-miterlimit="10" x1="494.137" y1="347.357" x2="494.137" y2="344.398"/>
<line fill="none" stroke="#000000" stroke-width="0.5" stroke-linejoin="round" stroke-miterlimit="10" x1="494.137" y1="14.973" x2="494.137" y2="16.946"/>
<line fill="none" stroke="#000000" stroke-width="0.5" stroke-linejoin="round" stroke-miterlimit="10" x1="498.081" y1="347.357" x2="498.081" y2="344.398"/>
<line fill="none" stroke="#000000" stroke-width="0.5" stroke-linejoin="round" stroke-miterlimit="10" x1="498.081" y1="14.973" x2="498.081" y2="16.946"/>
<line fill="none" stroke="#000000" stroke-width="0.5" stroke-linejoin="round" stroke-miterlimit="10" x1="503.014" y1="347.357" x2="503.014" y2="344.398"/>
<line fill="none" stroke="#000000" stroke-width="0.5" stroke-linejoin="round" stroke-miterlimit="10" x1="503.014" y1="14.973" x2="503.014" y2="16.946"/>
<line fill="none" stroke="#000000" stroke-width="0.5" stroke-linejoin="round" stroke-miterlimit="10" x1="506.958" y1="347.357" x2="506.958" y2="344.398"/>
<line fill="none" stroke="#000000" stroke-width="0.5" stroke-linejoin="round" stroke-miterlimit="10" x1="506.958" y1="14.973" x2="506.958" y2="16.946"/>
<line fill="none" stroke="#000000" stroke-width="0.5" stroke-linejoin="round" stroke-miterlimit="10" x1="506.958" y1="347.357" x2="506.958" y2="342.425"/>
<line fill="none" stroke="#000000" stroke-width="0.5" stroke-linejoin="round" stroke-miterlimit="10" x1="506.958" y1="14.973" x2="506.958" y2="18.918"/>
<text transform="matrix(1 0 0 1 493.1504 373)" font-family="'Helvetica'" font-size="20">10</text>
<text transform="matrix(1 0 0 1 514.8496 361.1641)" font-family="'Helvetica'" font-size="13.3333">5</text>
<line fill="none" stroke="#000000" stroke-width="0.5" stroke-linejoin="round" stroke-miterlimit="10" x1="93.698" y1="347.357" x2="97.644" y2="347.357"/>
<line fill="none" stroke="#000000" stroke-width="0.5" stroke-linejoin="round" stroke-miterlimit="10" x1="506.958" y1="347.357" x2="502.027" y2="347.357"/>
<text transform="matrix(1 0 0 1 46.3564 354.2607)" font-family="'Helvetica'" font-size="20">−160</text>
<line fill="none" stroke="#000000" stroke-width="0.5" stroke-linejoin="round" stroke-miterlimit="10" x1="93.698" y1="299.028" x2="97.644" y2="299.028"/>
<line fill="none" stroke="#000000" stroke-width="0.5" stroke-linejoin="round" stroke-miterlimit="10" x1="506.958" y1="299.028" x2="502.027" y2="299.028"/>
<text transform="matrix(1 0 0 1 46.3564 305.9316)" font-family="'Helvetica'" font-size="20">−150</text>
<line fill="none" stroke="#000000" stroke-width="0.5" stroke-linejoin="round" stroke-miterlimit="10" x1="93.698" y1="251.686" x2="97.644" y2="251.686"/>
<line fill="none" stroke="#000000" stroke-width="0.5" stroke-linejoin="round" stroke-miterlimit="10" x1="506.958" y1="251.686" x2="502.027" y2="251.686"/>
<text transform="matrix(1 0 0 1 46.3564 258.5889)" font-family="'Helvetica'" font-size="20">−140</text>
<line fill="none" stroke="#000000" stroke-width="0.5" stroke-linejoin="round" stroke-miterlimit="10" x1="93.698" y1="204.343" x2="97.644" y2="204.343"/>
<line fill="none" stroke="#000000" stroke-width="0.5" stroke-linejoin="round" stroke-miterlimit="10" x1="506.958" y1="204.343" x2="502.027" y2="204.343"/>
<text transform="matrix(1 0 0 1 46.3564 211.2471)" font-family="'Helvetica'" font-size="20">−130</text>
<line fill="none" stroke="#000000" stroke-width="0.5" stroke-linejoin="round" stroke-miterlimit="10" x1="93.698" y1="157" x2="97.644" y2="157"/>
<line fill="none" stroke="#000000" stroke-width="0.5" stroke-linejoin="round" stroke-miterlimit="10" x1="506.958" y1="157" x2="502.027" y2="157"/>
<text transform="matrix(1 0 0 1 46.3564 163.9048)" font-family="'Helvetica'" font-size="20">−120</text>
<line fill="none" stroke="#000000" stroke-width="0.5" stroke-linejoin="round" stroke-miterlimit="10" x1="93.698" y1="109.658" x2="97.644" y2="109.658"/>
<line fill="none" stroke="#000000" stroke-width="0.5" stroke-linejoin="round" stroke-miterlimit="10" x1="506.958" y1="109.658" x2="502.027" y2="109.658"/>
<text transform="matrix(1 0 0 1 46.3564 116.562)" font-family="'Helvetica'" font-size="20">−110</text>
<line fill="none" stroke="#000000" stroke-width="0.5" stroke-linejoin="round" stroke-miterlimit="10" x1="93.698" y1="62.316" x2="97.644" y2="62.316"/>
<line fill="none" stroke="#000000" stroke-width="0.5" stroke-linejoin="round" stroke-miterlimit="10" x1="506.958" y1="62.316" x2="502.027" y2="62.316"/>
<text transform="matrix(1 0 0 1 46.3564 69.2197)" font-family="'Helvetica'" font-size="20">−100</text>
<line fill="none" stroke="#000000" stroke-width="0.5" stroke-linejoin="round" stroke-miterlimit="10" x1="93.698" y1="14.973" x2="97.644" y2="14.973"/>
<line fill="none" stroke="#000000" stroke-width="0.5" stroke-linejoin="round" stroke-miterlimit="10" x1="506.958" y1="14.973" x2="502.027" y2="14.973"/>
<g>
	<defs>
		<rect id="SVGID_1_" width="525.356" height="402.589"/>
	</defs>
	<clipPath id="SVGID_2_">
		<use xlink:href="#SVGID_1_"  overflow="visible"/>
	</clipPath>
	<g clip-path="url(#SVGID_2_)">
		<text transform="matrix(1 0 0 1 57.2056 21.877)" font-family="'Helvetica'" font-size="20">−90</text>
	</g>
</g>
<line fill="none" stroke="#000000" stroke-width="0.5" stroke-linejoin="round" stroke-miterlimit="10" x1="93.698" y1="347.357" x2="506.958" y2="347.357"/>
<line fill="none" stroke="#000000" stroke-width="0.5" stroke-linejoin="round" stroke-miterlimit="10" x1="93.698" y1="14.973" x2="506.958" y2="14.973"/>
<line fill="none" stroke="#000000" stroke-width="0.5" stroke-linejoin="round" stroke-miterlimit="10" x1="93.698" y1="347.357" x2="93.698" y2="14.974"/>
<line fill="none" stroke="#000000" stroke-width="0.5" stroke-linejoin="round" stroke-miterlimit="10" x1="506.958" y1="347.357" x2="506.958" y2="14.974"/>
<polyline fill="none" stroke="#FF0000" stroke-linejoin="round" stroke-miterlimit="10" points="456.657,257.603 456.657,263.521 
	457.644,264.507 457.644,269.439 457.644,247.74 457.644,255.63 458.63,249.713 458.63,265.494 458.63,248.727 458.63,265.494 
	459.616,261.548 459.616,276.343 459.616,257.603 459.616,265.494 460.603,269.439 460.603,284.233 460.603,257.603 
	460.603,271.411 461.589,269.439 461.589,277.329 461.589,261.548 461.589,264.507 462.575,274.37 462.575,254.644 462.575,271.411 
	463.562,272.398 463.562,275.357 463.562,262.535 463.562,265.494 464.548,268.452 464.548,283.248 464.548,257.603 
	464.548,263.521 465.533,266.48 465.533,275.357 465.533,261.548 465.533,266.48 466.521,274.37 466.521,279.302 466.521,260.562 
	466.521,275.357 467.507,275.357 467.507,259.576 467.507,265.494 468.492,270.425 468.492,277.329 468.492,258.589 468.492,266.48 
	469.479,268.452 469.479,277.329 469.479,255.63 469.479,268.452 470.466,270.425 470.466,276.343 470.466,257.603 470.466,275.357 
	471.451,272.398 471.451,283.248 471.451,263.521 471.451,271.411 472.438,270.425 472.438,279.302 472.438,258.589 
	472.438,264.507 473.425,263.521 473.425,280.288 473.425,258.589 473.425,260.562 474.41,261.548 474.41,281.274 474.41,258.589 
	474.41,264.507 475.397,269.439 475.397,279.302 475.397,257.603 476.384,260.562 476.384,279.302 476.384,261.548 477.369,256.617 
	477.369,280.288 477.369,255.63 477.369,266.48 478.355,272.398 478.355,275.357 478.355,253.658 478.355,257.603 479.343,262.535 
	479.343,276.343 479.343,258.589 479.343,267.466 480.328,266.48 480.328,286.207 480.328,256.617 480.328,270.425 481.314,275.357 
	481.314,279.302 481.314,259.576 482.302,262.535 482.302,278.316 482.302,254.644 "/>
<polyline fill="none" stroke="#FF0000" stroke-linejoin="round" stroke-miterlimit="10" points="430.027,257.603 430.027,264.507 
	430.027,252.672 431.014,259.576 431.014,263.521 431.014,251.686 431.014,256.617 431.999,257.603 431.999,267.466 
	431.999,261.548 432.986,263.521 432.986,255.63 432.986,257.603 433.973,260.562 433.973,276.343 433.973,251.686 433.973,264.507 
	434.958,265.494 434.958,271.411 434.958,259.576 434.958,263.521 435.944,262.535 435.944,273.384 435.944,255.63 435.944,264.507 
	436.932,269.439 436.932,280.288 436.932,252.672 436.932,261.548 437.917,257.603 437.917,272.398 437.917,256.617 
	437.917,261.548 438.903,265.494 438.903,271.411 438.903,255.63 439.891,256.617 439.891,263.521 439.891,237.877 440.876,228.014 
	440.876,200.398 440.876,216.179 441.862,215.192 441.862,255.63 441.862,251.686 442.85,248.727 442.85,256.617 442.85,235.905 
	442.85,243.795 443.835,243.795 443.835,218.151 443.835,231.959 444.821,243.795 444.821,269.439 445.809,267.466 445.809,272.398 
	445.809,260.562 445.809,264.507 446.794,267.466 446.794,256.617 446.794,270.425 447.78,270.425 447.78,278.316 447.78,259.576 
	447.78,264.507 448.768,263.521 448.768,274.37 448.768,257.603 448.768,271.411 449.753,268.452 449.753,276.343 449.753,264.507 
	449.753,273.384 450.739,267.466 450.739,271.411 450.739,259.576 450.739,261.548 451.726,260.562 451.726,280.288 
	451.726,259.576 451.726,266.48 452.712,269.439 452.712,272.398 452.712,257.603 452.712,266.48 453.698,271.411 453.698,279.302 
	453.698,258.589 453.698,266.48 454.685,266.48 454.685,274.37 454.685,250.699 454.685,253.658 455.671,256.617 455.671,245.768 
	455.671,266.48 456.657,263.521 456.657,276.343 456.657,257.603 "/>
<polyline fill="none" stroke="#FF0000" stroke-linejoin="round" stroke-miterlimit="10" points="397.479,259.576 397.479,254.644 
	397.479,258.589 398.466,257.603 398.466,246.754 399.451,249.713 399.451,256.617 399.451,249.713 400.438,251.686 
	400.438,244.781 400.438,251.686 401.425,248.727 401.425,220.124 402.41,215.192 402.41,202.37 402.41,208.288 403.397,218.151 
	403.397,225.056 403.397,214.206 403.397,223.083 404.384,224.069 404.384,231.959 404.384,230.973 405.369,238.864 
	405.369,251.686 405.369,244.781 406.356,249.713 406.356,255.63 407.343,259.576 407.343,261.548 407.343,248.727 408.328,257.603 
	408.328,254.644 408.328,261.548 409.314,255.63 409.314,261.548 409.314,251.686 409.314,253.658 410.302,258.589 410.302,266.48 
	410.302,258.589 410.302,265.494 411.287,261.548 411.287,248.727 411.287,251.686 412.273,259.576 412.273,268.452 
	413.261,263.521 413.261,248.727 413.261,257.603 414.246,254.644 414.246,258.589 414.246,244.781 415.232,252.672 
	415.232,189.548 416.219,178.699 416.219,177.713 416.219,211.247 417.205,205.329 417.205,251.686 417.205,249.713 
	418.191,257.603 418.191,221.11 419.178,224.069 419.178,220.124 419.178,249.713 420.164,249.713 420.164,264.507 420.164,247.74 
	420.164,261.548 421.15,262.535 421.15,264.507 421.15,252.672 422.137,263.521 422.137,252.672 422.137,265.494 423.122,254.644 
	423.122,257.603 423.122,249.713 423.122,256.617 424.109,253.658 424.109,264.507 424.109,245.768 425.096,255.63 425.096,260.562 
	425.096,251.686 426.081,258.589 426.081,265.494 426.081,254.644 427.068,262.535 427.068,242.809 427.068,246.754 
	428.055,250.699 428.055,244.781 428.055,260.562 429.04,259.576 429.04,272.398 429.04,247.74 430.027,257.603 "/>
<polyline fill="none" stroke="#FF0000" stroke-linejoin="round" stroke-miterlimit="10" points="345.205,263.521 346.191,253.658 
	347.178,249.713 348.164,254.644 349.15,260.562 350.137,251.686 351.123,256.617 352.109,266.48 353.096,264.507 353.096,259.576 
	354.081,249.713 355.068,259.576 356.055,258.589 357.04,252.672 358.027,256.617 359.014,262.535 359.014,253.658 359.999,260.562 
	360.986,256.617 360.986,263.521 361.973,271.411 362.958,267.466 362.958,258.589 363.945,248.727 364.932,258.589 
	364.932,259.576 365.917,250.699 365.917,252.672 366.903,251.686 367.891,248.727 367.891,252.672 368.876,258.589 
	369.862,260.562 369.862,262.535 370.85,258.589 370.85,256.617 371.835,258.589 371.835,268.452 372.821,259.576 372.821,251.686 
	373.809,261.548 373.809,256.617 374.794,245.768 374.794,229.987 375.78,217.165 375.78,230.973 375.78,216.179 376.768,205.329 
	376.768,208.288 377.754,190.536 377.754,183.63 378.739,185.604 378.739,184.618 378.739,191.521 379.727,190.536 379.727,198.424 
	380.712,224.069 380.712,216.179 380.712,224.069 381.698,233.932 381.698,256.617 382.684,253.658 382.684,258.589 
	383.671,261.548 383.671,266.48 383.671,259.576 384.657,262.535 384.657,267.466 384.657,266.48 385.644,264.507 385.644,258.589 
	386.63,256.617 386.63,252.672 387.616,259.576 387.616,262.535 387.616,259.576 388.603,253.658 388.603,264.507 389.589,260.562 
	389.589,261.548 389.589,255.63 389.589,259.576 390.575,260.562 390.575,258.589 391.562,261.548 391.562,251.686 391.562,254.644 
	392.548,251.686 392.548,255.63 393.534,259.576 393.534,253.658 393.534,259.576 394.521,255.63 394.521,271.411 395.507,267.466 
	395.507,264.507 395.507,267.466 396.492,264.507 396.492,256.617 397.479,259.576 "/>
<polyline fill="none" stroke="#FF0000" stroke-linejoin="round" stroke-miterlimit="10" points="310.686,219.138 310.686,233.932 
	311.671,230.973 311.671,238.864 311.671,216.179 311.671,223.083 312.657,227.028 312.657,239.85 312.657,216.179 312.657,230.973 
	313.644,228.014 313.644,239.85 313.644,218.151 313.644,223.083 314.63,230.973 314.63,233.932 314.63,219.138 314.63,226.041 
	315.616,225.055 315.616,234.918 315.616,220.124 315.616,229 316.603,231.959 316.603,236.891 316.603,203.357 317.589,181.659 
	317.589,231.959 317.589,178.7 317.589,227.028 318.575,232.946 318.575,236.891 318.575,221.11 318.575,228.014 319.562,226.041 
	319.562,236.891 319.562,219.138 319.562,225.055 320.548,229 320.548,235.905 320.548,220.124 320.548,229.987 321.534,239.85 
	321.534,217.165 321.534,225.055 322.521,223.083 322.521,237.877 322.521,219.138 322.521,237.877 323.507,237.877 
	323.507,218.151 323.507,230.973 324.493,224.069 324.493,241.822 324.493,219.138 324.493,229.987 325.479,232.946 
	325.479,236.891 325.479,216.179 325.479,219.138 326.466,222.096 326.466,238.864 326.466,220.124 326.466,228.014 327.451,229 
	327.451,238.864 327.451,218.151 327.451,222.096 328.438,224.069 328.438,241.822 328.438,222.096 328.438,227.028 
	329.425,234.918 329.425,236.891 329.425,217.165 329.425,223.083 330.41,221.11 330.41,236.891 330.41,220.124 330.41,226.041 
	331.397,220.124 331.397,237.877 331.397,209.275 331.397,228.014 332.384,222.096 332.384,237.877 332.384,220.124 
	332.384,228.014 333.369,231.959 333.369,219.138 333.369,231.959 334.356,250.699 336.328,251.686 337.315,258.589 
	338.302,259.575 339.287,252.672 341.261,249.713 342.246,246.754 343.232,252.672 344.219,263.521 345.205,263.521 "/>
<polyline fill="none" stroke="#FF0000" stroke-linejoin="round" stroke-miterlimit="10" points="284.055,242.809 284.055,216.179 
	285.04,223.083 285.04,232.946 285.04,223.083 286.027,220.124 286.027,235.905 286.027,231.959 287.014,227.028 287.014,231.959 
	287.014,216.179 287.014,231.959 287.999,221.11 287.999,235.905 287.999,218.151 287.999,229.987 288.986,227.028 288.986,233.932 
	288.986,222.096 288.986,224.069 289.973,221.11 289.973,232.946 289.973,220.124 289.973,228.014 290.958,224.069 290.958,229.987 
	290.958,220.124 291.945,220.124 291.945,232.946 291.945,219.138 291.945,226.041 292.932,222.096 292.932,218.151 
	292.932,241.822 293.917,231.959 293.917,222.096 293.917,225.055 294.904,224.069 294.904,236.891 294.904,216.179 295.891,221.11 
	295.891,231.959 295.891,218.151 295.891,227.028 296.876,223.083 296.876,234.918 296.876,218.151 296.876,226.041 
	297.862,225.055 297.862,233.932 297.862,217.165 297.862,225.055 298.85,225.055 298.85,234.918 298.85,220.124 298.85,228.014 
	299.835,234.918 299.835,218.151 299.835,220.124 300.821,229 300.821,236.891 300.821,220.124 300.821,232.946 301.809,224.069 
	301.809,237.877 301.809,216.179 301.809,219.138 302.794,224.069 302.794,230.973 302.794,218.151 302.794,224.069 303.78,228.014 
	303.78,234.918 303.78,219.138 303.78,226.041 304.768,229.987 304.768,233.932 304.768,217.165 304.768,231.959 305.754,232.946 
	305.754,220.124 305.754,225.055 306.739,218.151 306.739,231.959 306.739,224.069 307.727,227.028 307.727,232.946 
	307.727,220.124 307.727,230.973 308.713,233.932 308.713,215.192 308.713,224.069 309.698,233.932 309.698,236.891 
	309.698,218.151 309.698,219.138 310.686,224.069 310.686,237.877 310.686,219.138 "/>
<polyline fill="none" stroke="#FF0000" stroke-linejoin="round" stroke-miterlimit="10" points="254.465,219.138 254.465,224.069 
	254.465,220.124 255.452,233.932 255.452,216.179 255.452,218.151 256.438,225.055 256.438,234.918 256.438,219.138 
	257.424,230.973 257.424,223.083 258.41,216.179 258.41,224.069 258.41,223.083 259.397,217.165 259.397,229 259.397,225.055 
	260.383,239.85 260.383,213.22 260.383,229 261.369,227.028 261.369,224.069 261.369,236.891 262.356,236.891 262.356,218.151 
	262.356,221.11 263.342,219.138 263.342,232.946 263.342,226.041 264.328,225.055 264.328,220.124 264.328,229.987 265.315,224.069 
	265.315,227.028 265.315,217.165 266.302,219.138 266.302,231.959 266.302,218.151 266.302,229.987 267.287,223.083 
	267.287,234.918 267.287,218.151 268.274,219.138 268.274,218.151 268.274,224.069 269.261,222.096 269.261,219.138 
	269.261,233.932 270.246,225.055 270.246,232.946 270.246,223.083 271.232,225.055 271.232,227.028 271.232,218.151 
	271.232,219.138 272.219,219.138 272.219,218.151 272.219,229 273.205,224.069 273.205,236.891 273.205,219.138 273.205,230.973 
	274.191,225.055 274.191,230.973 274.191,218.151 274.191,228.014 275.178,222.096 275.178,234.918 275.178,216.179 
	276.164,224.069 276.164,215.192 276.164,236.891 277.15,228.014 277.15,216.179 278.137,190.535 278.137,229.987 278.137,223.083 
	279.123,225.055 279.123,231.959 279.123,221.11 279.123,225.055 280.109,224.069 280.109,231.959 280.109,217.165 280.109,223.083 
	281.096,226.041 281.096,230.973 281.096,218.151 281.096,229 282.082,224.069 282.082,228.014 282.082,218.151 282.082,226.041 
	283.068,225.055 283.068,231.959 283.068,216.179 283.068,230.973 284.055,223.083 284.055,242.809 "/>
<polyline fill="none" stroke="#FF0000" stroke-linejoin="round" stroke-miterlimit="10" points="213.042,213.22 213.042,218.151 
	214.027,223.083 215.014,217.165 215.014,216.179 216,218.151 216,217.165 216.986,210.261 217.973,217.165 217.973,215.192 
	218.958,219.138 218.958,216.179 219.945,216.179 219.945,219.138 220.932,218.151 221.917,220.124 221.917,216.179 
	222.904,211.247 222.904,219.138 223.891,214.206 223.891,217.165 224.876,224.069 224.876,215.192 225.863,227.028 
	225.863,216.179 226.85,218.151 226.85,213.22 227.835,218.151 227.835,224.069 227.835,212.233 228.821,218.151 229.809,216.179 
	229.809,224.069 229.809,216.179 230.794,218.151 230.794,225.055 231.78,221.11 231.78,226.041 231.78,225.055 232.768,222.096 
	232.768,229.987 233.753,227.028 233.753,221.11 234.739,226.041 234.739,218.151 235.727,212.233 235.727,215.192 236.712,228.014 
	236.712,218.151 237.699,221.11 237.699,219.138 237.699,223.083 238.686,219.138 238.686,217.165 239.671,219.138 239.671,227.028 
	239.671,224.069 240.658,222.096 240.658,213.22 240.658,218.151 241.645,231.959 241.645,219.138 241.645,221.11 242.629,229 
	242.629,214.206 243.617,223.083 243.617,217.165 244.603,223.083 244.603,218.151 244.603,226.041 245.588,223.083 
	245.588,214.206 245.588,217.165 246.576,221.11 246.576,228.014 246.576,217.165 246.576,218.151 247.562,222.096 247.562,228.014 
	247.562,226.041 248.547,223.083 248.547,230.973 248.547,220.124 249.535,229.987 249.535,227.028 249.535,228.014 
	250.521,222.096 250.521,232.946 250.521,231.959 251.506,228.014 251.506,221.11 251.506,223.083 252.494,219.138 252.494,227.028 
	252.494,218.151 252.494,224.069 253.479,227.028 253.479,221.11 253.479,226.041 254.465,219.138 "/>
<g>
	<defs>
		<rect id="SVGID_3_" x="93.698" y="14.973" width="414.247" height="333.37"/>
	</defs>
	<clipPath id="SVGID_4_">
		<use xlink:href="#SVGID_3_"  overflow="visible"/>
	</clipPath>
	<polyline clip-path="url(#SVGID_4_)" fill="none" stroke="#FF0000" stroke-linejoin="round" stroke-miterlimit="10" points="
		93.698,147.138 107.506,161.932 118.356,177.713 126.246,177.713 132.164,184.617 138.082,194.48 143.013,188.562 146.958,188.562 
		150.904,184.617 154.849,186.589 157.808,191.521 160.767,195.466 162.739,200.398 165.698,205.329 167.671,200.398 
		169.644,198.425 171.616,203.357 173.588,199.411 175.561,201.384 177.534,200.398 179.506,205.329 180.493,201.384 
		182.465,195.466 183.452,201.384 185.424,205.329 186.411,204.343 188.383,196.453 189.369,198.425 190.356,209.275 
		191.342,214.206 192.328,206.316 194.301,204.343 195.287,211.247 196.274,207.302 197.26,210.261 198.246,211.247 
		199.233,211.247 200.219,205.329 201.205,209.275 201.205,213.22 202.191,210.261 203.177,213.22 204.164,211.247 205.15,217.165 
		206.136,215.192 206.136,214.206 207.123,220.124 208.109,216.179 209.095,223.083 209.095,222.096 210.082,220.124 
		211.068,215.192 211.068,213.22 212.054,207.302 213.041,213.22 	"/>
</g>
<g>
	<defs>
		<rect id="SVGID_5_" width="525.356" height="402.589"/>
	</defs>
	<clipPath id="SVGID_6_">
		<use xlink:href="#SVGID_5_"  overflow="visible"/>
	</clipPath>
	<g clip-path="url(#SVGID_6_)">
		<text transform="matrix(1 0 0 1 216.9863 395.6846)" font-family="'Helvetica'" font-size="23.9999">Frequency (Hz)</text>
	</g>
</g>
<polyline fill="none" stroke="#0000FF" stroke-linejoin="round" stroke-miterlimit="10" points="457.644,303.959 458.63,312.836 
	458.63,320.727 458.63,304.946 458.63,316.781 459.616,316.781 459.616,324.671 459.616,306.918 459.616,314.809 460.603,312.836 
	460.603,324.671 460.603,304.946 460.603,321.713 461.589,318.754 461.589,323.685 461.589,306.918 461.589,313.822 
	462.575,309.877 462.575,326.644 462.575,305.932 462.575,315.795 463.562,312.836 463.562,329.603 463.562,306.918 
	463.562,316.781 464.548,314.809 464.548,324.671 464.548,306.918 464.548,312.836 465.533,312.836 465.533,321.713 
	465.533,297.055 465.533,315.795 466.521,320.727 466.521,321.713 466.521,305.932 466.521,319.74 467.507,318.754 467.507,324.671 
	467.507,308.891 467.507,321.713 468.492,314.809 468.492,320.727 468.492,301 468.492,311.85 469.479,312.836 469.479,330.589 
	469.479,307.905 469.479,313.822 470.466,307.905 470.466,323.685 470.466,306.918 470.466,312.836 471.451,307.905 
	471.451,322.699 471.451,304.946 471.451,313.822 472.438,311.85 472.438,325.658 472.438,306.918 472.438,308.891 473.425,311.85 
	473.425,322.699 473.425,303.959 473.425,315.795 474.41,312.836 474.41,322.699 474.41,305.932 474.41,314.809 475.397,316.781 
	475.397,322.699 475.397,301 475.397,322.699 476.384,314.809 476.384,319.74 476.384,302.973 476.384,309.877 477.369,306.918 
	477.369,323.685 477.369,302.973 477.369,306.918 478.355,310.863 478.355,323.685 478.355,304.946 478.355,310.863 
	479.343,310.863 479.343,326.644 479.343,304.946 479.343,314.809 480.328,319.74 480.328,326.644 480.328,303.959 480.328,304.946 
	481.314,313.822 481.314,322.699 481.314,305.932 481.314,319.74 482.302,321.713 482.302,322.699 482.302,308.891 "/>
<polyline fill="none" stroke="#0000FF" stroke-linejoin="round" stroke-miterlimit="10" points="430.027,312.836 430.027,319.74 
	431.014,321.713 431.014,322.699 431.014,303.959 431.014,309.877 431.999,315.795 431.999,310.863 431.999,322.699 432.986,319.74 
	432.986,304.946 432.986,309.877 433.973,313.822 433.973,323.685 433.973,311.85 434.958,319.74 434.958,303.959 434.958,307.905 
	435.944,313.822 435.944,318.754 435.944,305.932 435.944,313.822 436.932,305.932 436.932,314.809 436.932,304.946 
	436.932,306.918 437.917,307.905 437.917,320.727 437.917,312.836 438.903,314.809 438.903,322.699 438.903,309.877 
	439.891,308.891 439.891,322.699 439.891,310.863 440.876,313.822 440.876,324.671 440.876,309.877 440.876,316.781 
	441.862,315.795 441.862,321.713 441.862,308.891 441.862,315.795 442.85,306.918 442.85,323.685 442.85,320.727 443.835,317.768 
	443.835,325.658 443.835,308.891 443.835,316.781 444.821,314.809 444.821,320.727 444.821,302.973 444.821,310.863 
	445.809,304.946 445.809,322.699 445.809,320.727 446.794,318.754 446.794,325.658 446.794,308.891 447.78,313.822 447.78,323.685 
	447.78,304.946 447.78,315.795 448.768,310.863 448.768,309.877 448.768,326.644 449.753,326.644 449.753,313.822 449.753,316.781 
	450.739,311.85 450.739,326.644 450.739,306.918 450.739,315.795 451.726,311.85 451.726,319.74 451.726,307.905 451.726,312.836 
	452.712,315.795 452.712,319.74 452.712,306.918 452.712,313.822 453.698,318.754 453.698,323.685 453.698,305.932 453.698,314.809 
	454.685,320.727 454.685,326.644 454.685,307.905 454.685,315.795 455.671,311.85 455.671,303.959 455.671,324.671 456.657,317.768 
	456.657,320.727 456.657,302.973 456.657,316.781 457.644,313.822 457.644,322.699 457.644,303.959 "/>
<polyline fill="none" stroke="#0000FF" stroke-linejoin="round" stroke-miterlimit="10" points="401.425,317.768 401.425,312.836 
	402.41,308.891 402.41,314.809 402.41,306.918 402.41,308.891 403.397,318.754 403.397,319.74 403.397,313.822 404.384,312.836 
	404.384,304.946 404.384,307.905 405.369,313.822 405.369,310.863 405.369,311.85 406.356,319.74 406.356,327.63 406.356,309.877 
	406.356,310.863 407.343,308.891 407.343,316.781 407.343,302.973 408.328,299.028 408.328,326.644 408.328,318.754 
	409.314,315.795 409.314,302.973 409.314,322.699 410.302,323.685 410.302,308.891 410.302,309.877 411.287,310.863 
	411.287,316.781 411.287,308.891 411.287,312.836 412.273,308.891 412.273,324.671 412.273,303.959 412.273,318.754 
	413.261,316.781 413.261,306.918 413.261,307.905 414.246,310.863 414.246,317.768 414.246,310.863 414.246,317.768 415.232,319.74 
	415.232,308.891 415.232,319.74 416.219,317.768 416.219,321.713 416.219,311.85 416.219,312.836 417.205,313.822 417.205,321.713 
	417.205,309.877 418.191,312.836 418.191,303.959 418.191,316.781 419.178,316.781 419.178,320.727 419.178,309.877 
	419.178,313.822 420.164,313.822 420.164,318.754 420.164,306.918 420.164,312.836 421.15,318.754 421.15,312.836 422.137,307.905 
	422.137,314.809 423.122,316.781 423.122,318.754 423.122,306.918 423.122,311.85 424.109,309.877 424.109,316.781 424.109,308.891 
	424.109,313.822 425.096,316.781 425.096,320.727 425.096,301 425.096,313.822 426.081,307.905 426.081,321.713 426.081,306.918 
	426.081,311.85 427.068,317.768 427.068,318.754 427.068,305.932 427.068,315.795 428.055,306.918 428.055,315.795 428.055,302.973 
	428.055,311.85 429.04,307.905 429.04,325.658 429.04,317.768 430.027,312.836 "/>
<polyline fill="none" stroke="#0000FF" stroke-linejoin="round" stroke-miterlimit="10" points="357.04,308.891 357.04,311.85 
	358.027,310.863 359.014,310.863 359.999,307.905 360.986,316.781 360.986,319.74 361.973,324.671 362.958,323.685 362.958,312.836 
	363.945,310.863 364.932,312.836 364.932,305.932 365.917,306.918 365.917,312.836 366.903,316.781 367.891,313.822 367.891,311.85 
	368.876,317.768 368.876,316.781 369.862,307.905 369.862,313.822 370.85,313.822 370.85,310.863 371.835,316.781 371.835,318.754 
	372.821,313.822 372.821,314.809 373.809,318.754 373.809,326.644 374.794,316.781 374.794,306.918 375.78,308.891 375.78,319.74 
	375.78,317.768 376.768,315.795 377.754,312.836 377.754,306.918 378.739,314.809 378.739,319.74 378.739,318.754 379.727,313.822 
	379.727,310.863 380.712,315.795 380.712,319.74 381.698,314.809 381.698,313.822 382.685,323.685 382.685,318.754 383.671,313.822 
	383.671,315.795 383.671,310.863 384.657,313.822 384.657,308.891 385.644,307.905 385.644,313.822 386.63,309.877 386.63,312.836 
	386.63,310.863 387.616,308.891 387.616,316.781 388.602,318.754 388.602,312.836 389.589,310.863 389.589,314.809 389.589,307.905 
	389.589,309.877 390.575,311.85 390.575,301.987 391.561,303.959 391.561,318.754 392.548,311.85 392.548,310.863 392.548,318.754 
	393.534,324.671 393.534,307.905 393.534,309.877 394.52,315.795 394.52,310.863 394.52,317.768 395.507,313.822 395.507,308.891 
	395.507,313.822 396.492,308.891 396.492,318.754 396.492,303.959 396.492,309.877 397.479,318.754 397.479,309.877 
	398.466,315.795 398.466,304.946 398.466,306.918 399.451,316.781 399.451,319.74 399.451,307.905 400.438,307.905 400.438,319.74 
	400.438,312.836 401.425,310.863 401.425,317.768 "/>
<polyline fill="none" stroke="#0000FF" stroke-linejoin="round" stroke-miterlimit="10" points="314.63,294.096 314.63,296.069 
	315.616,296.069 315.616,308.891 315.616,295.082 315.616,301.987 316.603,301.987 316.603,310.863 316.603,296.069 
	316.603,309.877 317.589,308.891 317.589,314.809 317.589,298.041 317.589,299.028 318.575,308.891 318.575,313.822 
	318.575,296.069 318.575,302.973 319.562,298.041 319.562,316.781 319.562,295.082 319.562,301.987 320.548,297.055 320.548,311.85 
	320.548,294.096 320.548,302.973 321.534,309.877 321.534,310.863 321.534,296.069 321.534,302.973 322.521,301 322.521,314.809 
	322.521,292.124 322.521,302.973 323.507,303.959 323.507,310.863 323.507,296.069 323.507,308.891 324.493,302.973 
	324.493,318.754 324.493,297.055 324.493,299.028 325.479,298.041 325.479,315.795 325.479,296.069 325.479,301.987 
	326.466,305.932 326.466,313.822 326.466,297.055 326.466,305.932 327.451,304.946 327.451,315.795 327.451,297.055 
	327.451,301.987 328.438,303.959 328.438,312.836 328.438,293.11 328.438,309.877 329.425,305.932 329.425,310.863 329.425,295.082 
	329.425,303.959 330.41,308.891 330.41,316.781 330.41,296.069 330.41,309.877 331.397,308.891 331.397,315.795 331.397,298.041 
	331.397,300.014 332.384,299.028 332.384,313.822 332.384,294.096 332.384,306.918 333.369,307.905 333.369,315.795 
	333.369,296.069 333.369,311.85 334.356,307.905 336.328,309.877 337.315,307.905 338.302,305.932 339.287,307.905 341.261,305.932 
	342.246,306.918 343.232,309.877 344.219,308.891 345.205,309.877 346.191,308.891 347.178,309.877 348.164,308.891 
	349.151,307.905 350.137,304.946 351.123,315.795 352.109,318.754 353.096,311.85 354.081,306.918 355.068,307.905 356.055,311.85 
	357.04,308.891 "/>
<polyline fill="none" stroke="#0000FF" stroke-linejoin="round" stroke-miterlimit="10" points="287.999,302.973 288.986,299.028 
	288.986,306.918 288.986,291.138 288.986,297.055 289.973,292.124 289.973,306.918 289.973,293.11 290.958,296.069 290.958,293.11 
	290.958,307.905 291.945,302.973 291.945,311.85 291.945,300.014 291.945,302.973 292.932,299.028 292.932,318.754 292.932,297.055 
	292.932,303.959 293.917,307.905 293.917,290.151 293.917,295.082 294.904,304.946 294.904,292.124 294.904,296.069 
	295.891,299.028 295.891,314.809 295.891,293.11 296.876,299.028 296.876,314.809 296.876,296.069 296.876,299.028 297.862,294.096 
	297.862,290.151 297.862,310.863 298.85,306.918 298.85,295.082 298.85,298.041 299.835,301.987 299.835,311.85 299.835,297.055 
	299.835,301.987 300.821,302.973 300.821,310.863 300.821,294.096 300.821,308.891 301.809,305.932 301.809,307.905 
	301.809,296.069 301.809,302.973 302.794,304.946 302.794,311.85 302.794,289.165 302.794,297.055 303.78,300.014 303.78,315.795 
	303.78,290.151 303.78,301 304.768,296.069 304.768,313.822 304.768,301 305.754,299.028 305.754,309.877 305.754,294.096 
	305.754,304.946 306.739,302.973 306.739,318.754 306.739,290.151 306.739,309.877 307.727,306.918 307.727,310.863 
	307.727,294.096 308.713,301 308.713,311.85 308.713,297.055 308.713,301 309.698,296.069 309.698,309.877 309.698,294.096 
	309.698,299.028 310.686,303.959 310.686,308.891 310.686,295.082 310.686,299.028 311.671,296.069 311.671,311.85 311.671,295.082 
	311.671,304.946 312.657,308.891 312.657,312.836 312.657,297.055 312.657,303.959 313.644,305.932 313.644,306.918 
	313.644,297.055 313.644,301.987 314.63,302.973 314.63,305.932 314.63,294.096 "/>
<polyline fill="none" stroke="#0000FF" stroke-linejoin="round" stroke-miterlimit="10" points="260.383,295.082 261.369,294.096 
	261.369,297.055 261.369,293.11 261.369,296.069 262.356,291.138 262.356,295.082 262.356,287.192 262.356,294.096 263.342,287.192 
	263.342,297.055 263.342,284.233 263.342,294.096 264.328,289.165 264.328,298.041 264.328,262.535 264.328,291.138 
	265.315,290.151 265.315,300.014 265.315,287.192 265.315,294.096 266.302,299.028 266.302,291.138 266.302,293.11 267.287,298.041 
	267.287,305.932 267.287,287.192 268.274,290.151 268.274,302.973 268.274,298.041 269.261,293.11 269.261,288.179 269.261,306.918 
	270.246,298.041 270.246,287.192 270.246,292.124 271.232,295.082 271.232,285.22 271.232,301.987 272.219,296.069 272.219,286.206 
	272.219,289.165 273.205,291.138 273.205,298.041 273.205,292.124 274.191,293.11 274.191,302.973 274.191,290.151 274.191,294.096 
	275.178,298.041 275.178,304.946 275.178,287.192 275.178,297.055 276.164,294.096 276.164,308.891 276.164,298.041 277.15,292.124 
	277.15,303.959 277.15,298.041 278.137,307.905 278.137,295.082 278.137,302.973 279.123,299.028 279.123,301.987 279.123,291.138 
	279.123,292.124 280.109,297.055 280.109,307.905 280.109,290.151 280.109,295.082 281.096,293.11 281.096,299.028 281.096,290.151 
	282.082,292.124 282.082,304.946 282.082,292.124 282.082,294.096 283.068,293.11 283.068,301.987 283.068,284.233 283.068,294.096 
	284.055,294.096 284.055,305.932 284.055,292.124 284.055,294.096 285.04,299.028 285.04,309.877 285.04,295.082 285.04,300.014 
	286.027,300.014 286.027,305.932 286.027,294.096 287.014,298.041 287.014,301 287.014,291.138 287.014,297.055 287.999,293.11 
	287.999,305.932 287.999,285.22 287.999,302.973 "/>
<polyline fill="none" stroke="#0000FF" stroke-linejoin="round" stroke-miterlimit="10" points="220.932,277.329 220.932,279.302 
	221.917,278.316 221.917,276.343 222.905,278.316 222.905,274.37 223.891,278.316 223.891,275.357 224.876,249.713 224.876,232.946 
	225.864,264.507 225.864,280.288 226.85,272.398 226.85,265.494 227.835,272.398 227.835,284.233 228.822,293.11 228.822,282.261 
	229.809,275.357 229.809,283.247 230.794,282.261 230.794,281.274 231.781,285.22 231.781,282.261 232.768,286.206 232.768,281.274 
	233.753,280.288 233.753,283.247 233.753,277.329 234.74,283.247 234.74,276.343 234.74,278.316 235.727,286.206 235.727,291.138 
	236.712,288.179 236.712,285.22 237.699,282.261 237.699,279.302 237.699,281.274 238.686,283.247 238.686,291.138 239.671,286.206 
	239.671,287.192 239.671,284.233 240.658,281.274 240.658,277.329 240.658,280.288 241.645,286.206 241.645,289.165 
	241.645,288.179 242.629,296.069 242.629,287.192 243.617,289.165 243.617,286.206 244.603,287.192 244.603,282.261 
	244.603,290.151 245.588,288.179 245.588,280.288 245.588,285.22 246.576,283.247 246.576,297.055 247.562,294.096 247.562,283.247 
	248.547,288.179 248.547,286.206 249.535,286.206 249.535,304.946 249.535,296.069 250.521,290.151 250.521,286.206 
	250.521,291.138 251.507,284.233 251.507,279.302 251.507,295.082 252.494,299.028 252.494,283.247 253.479,282.261 253.479,293.11 
	253.479,287.192 254.466,289.165 254.466,299.028 254.466,282.261 254.466,291.138 255.453,289.165 255.453,293.11 255.453,291.138 
	256.438,299.028 256.438,290.151 257.425,296.069 257.425,298.041 257.425,291.138 258.411,288.179 258.411,300.014 
	258.411,292.124 259.397,287.192 259.397,296.069 260.384,293.11 260.384,292.124 260.384,295.082 "/>
<g>
	<defs>
		<rect id="SVGID_7_" x="93.698" y="14.973" width="414.247" height="333.37"/>
	</defs>
	<clipPath id="SVGID_8_">
		<use xlink:href="#SVGID_7_"  overflow="visible"/>
	</clipPath>
	<polyline clip-path="url(#SVGID_8_)" fill="none" stroke="#0000FF" stroke-linejoin="round" stroke-miterlimit="10" points="
		93.698,194.48 107.506,208.288 118.356,217.165 126.246,227.028 132.164,230.973 138.082,230.973 143.013,227.028 146.958,233.932 
		150.904,237.877 154.849,239.85 157.808,244.781 160.767,245.768 162.739,247.74 165.698,248.727 167.671,240.836 169.644,246.754 
		171.616,252.672 173.588,261.548 175.561,251.686 177.534,252.672 179.506,256.617 180.493,250.699 182.465,250.699 
		183.452,261.548 185.424,258.589 186.411,258.589 188.383,268.452 189.369,273.384 190.356,261.548 191.342,260.562 
		192.328,266.48 194.301,265.494 195.287,265.494 196.274,259.576 197.26,268.452 198.246,270.425 199.233,269.439 200.219,264.507 
		201.205,267.466 201.205,260.562 202.191,267.466 203.177,274.37 204.164,271.411 205.15,266.48 206.136,266.48 206.136,271.411 
		207.123,272.398 208.109,276.343 209.095,275.357 209.095,279.302 210.082,271.411 211.068,265.494 211.068,267.466 
		212.054,276.343 213.041,278.316 213.041,271.411 214.027,272.398 215.013,267.466 215.013,268.452 215.999,273.384 
		215.999,274.37 216.986,280.288 217.972,278.316 217.972,286.206 218.958,289.165 218.958,280.288 219.945,279.302 
		219.945,276.343 220.931,277.329 	"/>
</g>
<polyline fill="none" stroke="#007F00" stroke-linejoin="round" stroke-miterlimit="10" points="456.657,219.138 457.644,218.151 
	457.644,225.055 457.644,207.302 457.644,214.206 458.63,213.22 458.63,229.987 458.63,224.069 459.616,218.151 459.616,223.083 
	459.616,208.288 460.603,209.275 460.603,226.041 460.603,222.096 461.589,229.987 461.589,207.302 461.589,222.096 
	462.575,218.151 462.575,228.014 462.575,210.261 462.575,219.138 463.562,222.096 463.562,231.959 463.562,213.22 463.562,224.069 
	464.548,225.055 464.548,227.028 464.548,214.206 464.548,218.151 465.533,219.138 465.533,226.041 465.533,210.261 
	466.521,209.275 466.521,229 466.521,209.275 466.521,211.247 467.507,228.014 467.507,229.987 467.507,209.275 467.507,219.138 
	468.492,220.124 468.492,236.891 468.492,213.22 468.492,217.165 469.479,215.192 469.479,231.959 469.479,213.22 469.479,221.11 
	470.466,222.096 470.466,230.973 470.466,213.22 470.466,214.206 471.451,217.165 471.451,233.932 471.451,214.206 471.451,215.192 
	472.438,222.096 472.438,237.877 472.438,218.151 472.438,220.124 473.425,224.069 473.425,233.932 473.425,212.233 
	473.425,220.124 474.41,220.124 474.41,231.959 474.41,212.233 475.397,221.11 475.397,235.905 475.397,207.302 475.397,225.055 
	476.384,221.11 476.384,233.932 476.384,214.206 476.384,219.138 477.369,233.932 477.369,234.918 477.369,218.151 477.369,221.11 
	478.355,219.138 478.355,233.932 478.355,211.247 478.355,225.055 479.343,224.069 479.343,233.932 479.343,214.206 
	479.343,226.041 480.328,229 480.328,237.877 480.328,217.165 480.328,220.124 481.314,216.179 481.314,215.192 481.314,237.877 
	482.302,226.041 482.302,237.877 482.302,218.151 "/>
<polyline fill="none" stroke="#007F00" stroke-linejoin="round" stroke-miterlimit="10" points="431.014,203.357 431.999,200.398 
	431.999,213.22 431.999,207.302 432.986,206.316 432.986,211.247 432.986,202.37 432.986,206.316 433.973,216.179 433.973,199.412 
	433.973,214.206 434.958,212.233 434.958,220.124 434.958,196.454 434.958,204.343 435.944,203.357 435.944,216.179 
	435.944,200.398 435.944,202.37 436.932,210.261 436.932,213.22 436.932,203.357 436.932,209.275 437.917,212.233 437.917,221.11 
	437.917,201.383 438.903,204.343 438.903,217.165 438.903,200.398 438.903,201.383 439.891,212.233 439.891,204.343 
	439.891,220.124 440.876,212.233 440.876,216.179 440.876,203.357 440.876,215.192 441.862,212.233 441.862,221.11 441.862,204.343 
	441.862,218.151 442.85,214.206 442.85,220.124 442.85,202.37 442.85,209.275 443.835,208.288 443.835,223.083 443.835,202.37 
	443.835,212.233 444.821,216.179 444.821,219.138 444.821,208.288 444.821,212.233 445.809,205.329 445.809,218.151 
	445.809,205.329 445.809,214.206 446.794,215.192 446.794,219.138 446.794,206.316 446.794,216.179 447.78,217.165 447.78,219.138 
	447.78,198.424 447.78,216.179 448.768,213.22 448.768,218.151 448.768,209.275 448.768,215.192 449.753,219.138 449.753,224.069 
	449.753,204.343 449.753,209.275 450.739,211.247 450.739,220.124 450.739,208.288 451.726,210.261 451.726,223.083 
	451.726,208.288 451.726,213.22 452.712,214.206 452.712,209.275 452.712,223.083 453.698,219.138 453.698,223.083 453.698,206.316 
	453.698,213.22 454.685,209.275 454.685,225.055 454.685,206.316 454.685,211.247 455.671,223.083 455.671,230.973 455.671,207.302 
	455.671,219.138 456.657,216.179 456.657,226.041 456.657,209.275 456.657,219.138 "/>
<polyline fill="none" stroke="#007F00" stroke-linejoin="round" stroke-miterlimit="10" points="397.479,190.535 398.466,187.576 
	398.466,186.589 398.466,192.507 399.451,187.576 399.451,183.631 399.451,192.507 400.438,191.521 400.438,184.617 
	401.425,190.535 401.425,192.507 401.425,187.576 401.425,189.548 402.41,192.507 402.41,193.494 402.41,183.631 402.41,192.507 
	403.397,197.439 403.397,188.562 404.384,192.507 404.384,199.411 405.369,199.411 405.369,191.521 406.356,189.548 
	406.356,188.562 406.356,197.439 407.343,193.494 407.343,199.411 407.343,193.494 408.328,192.507 408.328,184.617 
	408.328,188.562 409.314,192.507 409.314,203.357 410.302,195.466 410.302,205.329 410.302,191.521 411.287,188.562 
	411.287,200.398 411.287,188.562 411.287,193.494 412.273,198.425 412.273,193.494 412.273,194.48 413.261,198.425 413.261,202.37 
	413.261,194.48 413.261,195.466 414.246,193.494 414.246,213.22 414.246,199.411 415.232,200.398 415.232,188.562 415.232,201.384 
	416.219,190.535 416.219,211.247 416.219,199.411 417.205,200.398 417.205,192.507 418.191,202.37 418.191,209.275 418.191,195.466 
	419.178,202.37 419.178,195.466 419.178,205.329 420.164,203.357 420.164,206.316 420.164,198.425 421.15,194.48 421.15,205.329 
	421.15,191.521 422.137,193.494 422.137,204.343 423.122,213.22 423.122,197.439 423.122,199.411 424.109,197.439 424.109,214.206 
	425.096,209.275 425.096,203.357 425.096,205.329 426.081,208.288 426.081,211.247 426.081,194.48 426.081,200.398 427.068,209.275 
	427.068,199.411 428.055,198.425 428.055,206.316 429.04,198.425 429.04,208.288 429.04,206.316 430.027,207.302 430.027,218.151 
	430.027,197.439 430.027,199.411 431.014,195.466 431.014,222.096 431.014,203.357 "/>
<polyline fill="none" stroke="#007F00" stroke-linejoin="round" stroke-miterlimit="10" points="347.178,160.946 348.164,168.836 
	349.15,159.959 350.137,161.932 351.123,164.891 352.109,159.959 353.096,162.918 353.096,170.809 354.081,171.795 355.068,170.809 
	356.055,182.645 357.04,177.713 357.04,171.795 358.027,171.795 359.014,167.85 359.999,162.918 360.986,170.809 360.986,176.727 
	361.973,175.74 362.958,172.781 362.958,173.768 363.945,176.727 364.932,178.699 364.932,180.672 365.917,175.74 365.917,174.754 
	366.903,175.74 367.891,173.768 367.891,177.713 368.876,171.795 368.876,175.74 369.862,182.645 369.862,177.713 370.85,174.754 
	371.835,172.781 371.835,171.795 372.821,176.727 372.821,175.74 373.809,168.836 373.809,177.713 374.794,183.631 374.794,186.589 
	375.78,179.686 375.78,181.658 375.78,180.672 376.768,173.768 376.768,175.74 377.754,178.699 377.754,179.686 378.739,181.658 
	378.739,172.781 379.727,177.713 379.727,175.74 380.712,174.754 380.712,172.781 380.712,179.686 381.698,187.576 381.698,181.658 
	382.685,181.658 382.685,179.686 383.671,184.617 383.671,183.631 383.671,188.562 384.656,189.548 384.656,175.74 385.644,179.686 
	385.644,188.562 386.63,195.466 386.63,185.603 386.63,186.589 387.615,182.645 387.615,183.631 387.615,181.658 388.603,181.658 
	388.603,187.576 388.603,184.617 389.589,183.631 389.589,192.507 390.574,195.466 390.574,192.507 390.574,194.481 
	391.562,195.466 391.562,182.645 391.562,185.603 392.548,189.548 392.548,197.44 393.533,192.507 393.533,178.699 393.533,188.562 
	394.521,197.44 394.521,184.617 394.521,188.562 395.507,182.645 395.507,180.672 396.492,181.658 396.492,199.411 396.492,193.494 
	397.479,186.589 397.479,198.425 397.479,190.535 "/>
<polyline fill="none" stroke="#007F00" stroke-linejoin="round" stroke-miterlimit="10" points="311.671,146.151 311.671,157.987 
	311.671,137.275 311.671,150.096 312.657,145.165 312.657,162.918 312.657,140.234 312.657,150.096 313.644,148.124 
	313.644,138.261 313.644,155.028 314.63,150.096 314.63,156.014 314.63,139.247 314.63,148.124 315.616,140.234 315.616,155.028 
	315.616,140.234 315.616,155.028 316.603,151.083 316.603,157 316.603,146.151 317.589,146.151 317.589,157 317.589,140.234 
	317.589,156.014 318.575,149.11 318.575,159.959 318.575,141.22 318.575,150.096 319.562,148.124 319.562,156.014 319.562,137.275 
	319.562,151.083 320.548,148.124 320.548,158.973 320.548,143.192 320.548,152.069 321.534,158.973 321.534,143.192 
	321.534,156.014 322.521,151.083 322.521,159.959 322.521,142.206 322.521,148.124 323.507,148.124 323.507,162.918 
	323.507,146.151 323.507,157 324.493,157 324.493,164.891 324.493,143.192 324.493,155.028 325.479,152.069 325.479,161.932 
	325.479,147.138 325.479,152.069 326.466,154.042 326.466,158.973 326.466,144.179 326.466,145.165 327.451,153.055 
	327.451,160.946 327.451,143.192 327.451,152.069 328.438,158.973 328.438,165.877 328.438,142.206 328.438,151.083 
	329.425,158.973 329.425,159.959 329.425,142.206 329.425,155.028 330.41,150.096 330.41,161.932 330.41,135.302 330.41,148.124 
	331.397,152.069 331.397,161.932 331.397,111.631 331.397,120.507 332.384,112.617 332.384,159.959 332.384,148.124 
	333.369,146.151 333.369,162.918 333.369,143.192 333.369,159.959 334.356,150.096 336.328,156.014 337.315,158.973 
	338.302,158.973 339.287,160.946 341.261,166.864 342.246,164.891 343.232,156.014 344.219,154.042 345.205,158.973 
	346.191,158.973 347.178,160.946 "/>
<polyline fill="none" stroke="#007F00" stroke-linejoin="round" stroke-miterlimit="10" points="285.04,127.412 285.04,129.384 
	286.027,137.275 286.027,125.439 286.027,127.412 287.014,141.22 287.014,147.138 287.014,129.384 287.014,139.247 287.999,138.261 
	287.999,140.234 287.999,125.439 287.999,126.425 288.986,129.384 288.986,143.192 288.986,126.425 288.986,135.302 
	289.973,131.357 289.973,123.466 289.973,137.275 290.958,136.288 290.958,145.165 290.958,128.398 290.958,134.316 
	291.945,132.343 291.945,131.357 291.945,143.192 292.932,139.247 292.932,141.22 292.932,131.357 292.932,137.275 293.917,135.302 
	293.917,142.206 293.917,129.384 294.904,134.316 294.904,142.206 294.904,130.37 294.904,137.275 295.891,133.329 295.891,144.179 
	295.891,132.343 295.891,138.261 296.876,143.192 296.876,151.083 296.876,124.453 296.876,138.261 297.862,147.138 
	297.862,148.124 297.862,131.357 297.862,143.192 298.85,156.014 298.85,130.37 298.85,140.234 299.835,137.275 299.835,144.179 
	299.835,130.37 299.835,136.288 300.821,138.261 300.821,147.138 300.821,132.343 300.821,146.151 301.809,138.261 301.809,136.288 
	301.809,154.042 302.794,152.069 302.794,138.261 302.794,145.165 303.78,142.206 303.78,151.083 303.78,135.302 303.78,138.261 
	304.768,141.22 304.768,135.302 304.768,151.083 305.754,145.165 305.754,156.014 305.754,134.316 305.754,142.206 306.739,141.22 
	306.739,152.069 306.739,136.288 306.739,147.138 307.727,147.138 307.727,149.11 307.727,134.316 307.727,146.151 308.713,145.165 
	308.713,152.069 308.713,138.261 308.713,141.22 309.698,138.261 309.698,152.069 309.698,133.329 309.698,146.151 310.686,147.138 
	310.686,152.069 310.686,137.275 310.686,143.192 311.671,146.151 "/>
<polyline fill="none" stroke="#007F00" stroke-linejoin="round" stroke-miterlimit="10" points="256.438,102.754 256.438,112.617 
	257.424,112.617 257.424,120.507 258.411,119.521 258.411,117.548 258.411,127.412 259.397,128.398 259.397,130.37 259.397,109.658 
	260.383,115.576 260.383,124.453 260.383,118.535 261.37,119.521 261.37,124.453 261.37,117.548 262.356,114.59 262.356,117.548 
	262.356,111.631 262.356,116.562 263.343,119.521 263.343,124.453 263.343,116.562 263.343,117.548 264.328,118.535 
	264.328,121.494 264.328,114.59 264.328,118.535 265.315,109.658 265.315,104.727 265.315,128.398 266.302,123.466 266.302,127.412 
	266.302,119.521 267.287,116.562 267.287,127.412 267.287,113.604 268.274,124.453 268.274,136.288 268.274,112.617 
	269.261,115.576 269.261,126.425 269.261,119.521 270.246,120.507 270.246,134.316 270.246,123.466 271.232,118.535 
	271.232,129.384 271.232,116.562 271.232,123.466 272.219,123.466 272.219,136.288 272.219,117.548 273.205,117.548 
	273.205,126.425 273.205,124.453 274.191,124.453 274.191,130.37 274.191,122.48 274.191,124.453 275.178,118.535 275.178,130.37 
	275.178,127.412 276.164,126.425 276.164,135.302 276.164,120.507 276.164,130.37 277.15,125.439 277.15,132.343 277.15,125.439 
	277.15,127.412 278.137,133.329 278.137,140.234 278.137,116.562 278.137,133.329 279.123,137.275 279.123,119.521 279.123,127.412 
	280.109,122.48 280.109,130.37 280.109,127.412 281.096,124.453 281.096,136.288 281.096,123.466 281.096,124.453 282.082,134.316 
	282.082,133.329 283.068,136.288 283.068,138.261 283.068,125.439 283.068,130.37 284.055,130.37 284.055,137.275 284.055,126.425 
	284.055,132.343 285.04,132.343 285.04,142.206 285.04,127.412 "/>
<polyline fill="none" stroke="#007F00" stroke-linejoin="round" stroke-miterlimit="10" points="214.027,96.836 215.013,95.85 
	215.013,92.891 216,90.918 216,86.973 216.986,92.891 217.972,105.713 217.972,102.754 218.958,101.768 218.958,100.782 
	219.945,101.768 219.945,100.782 220.931,98.809 220.931,90.918 221.917,92.891 221.917,97.823 222.904,95.85 223.89,94.864 
	223.89,93.877 224.876,96.836 224.876,95.85 225.863,96.836 226.849,99.795 226.849,96.836 227.835,102.754 227.835,103.74 
	227.835,100.782 228.821,97.823 228.821,101.768 229.808,100.782 229.808,96.836 230.794,97.823 230.794,96.836 231.78,100.782 
	231.78,99.795 231.78,107.686 232.767,107.686 232.767,102.754 233.753,103.74 233.753,111.631 233.753,97.823 234.739,98.809 
	234.739,111.631 235.726,110.645 235.726,106.699 235.726,108.672 236.712,99.795 236.712,100.782 237.698,109.658 237.698,112.617 
	237.698,108.672 238.685,103.74 238.685,112.617 239.671,105.713 239.671,70.206 240.657,46.535 240.657,108.672 241.645,110.645 
	241.645,113.604 242.629,114.59 242.629,109.658 243.616,102.754 243.616,113.604 244.603,112.617 244.603,120.507 245.588,113.604 
	245.588,104.727 245.588,112.617 246.575,109.658 246.575,103.74 246.575,112.617 247.562,116.562 247.562,100.782 247.562,107.686 
	248.547,112.617 248.547,114.59 248.547,110.645 249.534,111.631 249.534,117.548 249.534,113.604 250.521,123.466 250.521,112.617 
	250.521,122.48 251.506,116.562 251.506,110.645 252.493,115.576 252.493,129.384 253.479,119.521 253.479,107.686 253.479,112.617 
	254.465,116.562 254.465,119.521 254.465,115.576 254.465,118.535 255.452,115.576 255.452,119.521 255.452,111.631 
	255.452,118.535 256.438,108.672 256.438,102.754 "/>
<g>
	<defs>
		<rect id="SVGID_9_" x="93.698" y="14.973" width="414.247" height="333.37"/>
	</defs>
	<clipPath id="SVGID_10_">
		<use xlink:href="#SVGID_9_"  overflow="visible"/>
	</clipPath>
	<polyline clip-path="url(#SVGID_10_)" fill="none" stroke="#007F00" stroke-linejoin="round" stroke-miterlimit="10" points="
		93.698,22.864 107.506,28.782 118.356,37.658 126.246,39.631 132.164,36.672 138.082,41.604 143.013,41.604 146.958,55.412 
		150.904,61.329 154.849,63.302 157.808,60.343 160.767,58.371 162.739,59.357 165.698,58.371 167.671,57.384 169.644,62.316 
		171.616,68.234 173.588,77.11 175.561,71.193 177.534,69.22 179.506,73.165 180.493,66.26 182.465,69.22 183.452,71.193 
		185.424,69.22 186.411,75.138 188.383,76.124 189.369,74.151 190.356,80.069 191.342,84.014 192.328,85.001 194.301,84.014 
		195.287,85.987 196.274,86.973 197.26,85.001 198.246,88.946 199.233,89.932 200.219,87.959 201.205,91.905 201.205,85.987 
		202.191,77.11 203.177,83.028 204.164,90.918 205.15,83.028 206.136,82.042 206.136,86.973 207.123,96.836 208.109,91.905 
		209.095,83.028 209.095,93.877 210.082,91.905 211.068,87.959 211.068,89.932 212.054,93.877 213.041,97.823 213.041,101.768 
		214.027,96.836 	"/>
</g>
<rect x="345.205" y="20.891" fill-rule="evenodd" clip-rule="evenodd" fill="#FFFFFF" width="157.809" height="75.945"/>
<rect x="345.205" y="20.891" fill="none" stroke="#FFFFFF" stroke-width="0.5" stroke-linejoin="round" stroke-miterlimit="10" width="157.809" height="75.945"/>
<line fill="none" stroke="#000000" stroke-width="0.5" stroke-linejoin="round" stroke-miterlimit="10" x1="345.205" y1="96.836" x2="503.014" y2="96.836"/>
<line fill="none" stroke="#000000" stroke-width="0.5" stroke-linejoin="round" stroke-miterlimit="10" x1="345.205" y1="20.891" x2="503.014" y2="20.891"/>
<line fill="none" stroke="#000000" stroke-width="0.5" stroke-linejoin="round" stroke-miterlimit="10" x1="345.205" y1="96.836" x2="345.205" y2="20.891"/>
<line fill="none" stroke="#000000" stroke-width="0.5" stroke-linejoin="round" stroke-miterlimit="10" x1="503.014" y1="96.836" x2="503.014" y2="20.891"/>
<line fill="none" stroke="#000000" stroke-width="0.5" stroke-linejoin="round" stroke-miterlimit="10" x1="345.205" y1="96.836" x2="503.014" y2="96.836"/>
<line fill="none" stroke="#000000" stroke-width="0.5" stroke-linejoin="round" stroke-miterlimit="10" x1="345.205" y1="96.836" x2="345.205" y2="20.891"/>
<line fill="none" stroke="#000000" stroke-width="0.5" stroke-linejoin="round" stroke-miterlimit="10" x1="345.205" y1="96.836" x2="503.014" y2="96.836"/>
<line fill="none" stroke="#000000" stroke-width="0.5" stroke-linejoin="round" stroke-miterlimit="10" x1="345.205" y1="20.891" x2="503.014" y2="20.891"/>
<line fill="none" stroke="#000000" stroke-width="0.5" stroke-linejoin="round" stroke-miterlimit="10" x1="345.205" y1="96.836" x2="345.205" y2="20.891"/>
<line fill="none" stroke="#000000" stroke-width="0.5" stroke-linejoin="round" stroke-miterlimit="10" x1="503.014" y1="96.836" x2="503.014" y2="20.891"/>
<text transform="matrix(1 0 0 1 385.6436 41.604)" font-family="'Helvetica'" font-size="20">II X6−1000M</text>
<line fill="none" stroke="#FF0000" stroke-linejoin="round" stroke-miterlimit="10" x1="351.123" y1="33.713" x2="381.698" y2="33.713"/>
<text transform="matrix(1 0 0 1 385.6436 66.2607)" font-family="'Helvetica'" font-size="20">BBN APS</text>
<line fill="none" stroke="#0000FF" stroke-linejoin="round" stroke-miterlimit="10" x1="351.123" y1="58.371" x2="381.698" y2="58.371"/>
<text transform="matrix(1 0 0 1 385.6436 90.918)" font-family="'Helvetica'" font-size="20">Tek5014</text>
<line fill="none" stroke="#007F00" stroke-linejoin="round" stroke-miterlimit="10" x1="351.123" y1="83.028" x2="381.698" y2="83.028"/>
<g>
	<defs>
		<rect id="SVGID_11_" x="5" y="102.659" width="30" height="152"/>
	</defs>
	<clipPath id="SVGID_12_">
		<use xlink:href="#SVGID_11_"  overflow="visible"/>
	</clipPath>
	<path clip-path="url(#SVGID_12_)" d="M20.436,245.459h4.928c0.433,0,0.481,0,0.889,0.264c1.154,0.719,1.683,1.797,1.683,2.826
		c0,1.077-0.625,1.939-1.539,2.514c-0.986,0.624-2.356,0.695-3.342,0.695c-0.889,0-2.332-0.048-3.414-0.742
		c-0.744-0.502-1.541-1.412-1.541-2.705c0-0.838,0.363-1.845,1.445-2.586c0.409-0.265,0.457-0.265,0.889-0.265 M26.885,245.459
		h1.616l-0.262-3.502h-0.738c0,1.706-0.168,1.901-1.343,1.901H11.602l0.262,3.436h0.738c0-1.67,0.168-1.86,1.342-1.86h5.171
		c-0.878,0.691-1.513,1.718-1.513,3.004c0,2.814,2.359,5.319,5.463,5.319c3.054,0,5.436-2.35,5.436-5.085
		C28.501,247.137,27.669,246.059,26.885,245.459L26.885,245.459z"/>
	<path clip-path="url(#SVGID_12_)" d="M27.5,231.78v3.001c0,1.129-0.168,1.176-0.958,1.176h-6.541v-4.514
		c0-2.377,2.229-3.387,3.834-3.387C25.536,228.057,27.5,229.307,27.5,231.78 M19.681,230.307c-0.454-2.308-1.981-3.95-3.747-3.95
		c-2.077,0-4.033,2.198-4.033,5.302v8.738h0.701v-0.568c0-1.823,0.267-1.871,1.13-1.871h12.641c0.864,0,1.127,0.048,1.127,1.871
		v0.568h0.7v-9.394c0-3.187-2.124-5.346-4.367-5.346C21.757,225.657,19.967,227.633,19.681,230.307 M19.5,235.957h-5.934
		c-0.796,0-0.966-0.048-0.966-1.173v-2.968c0-2.321,2.051-3.16,3.33-3.16c1.543,0,3.57,1.173,3.57,3.83V235.957z"/>
	<path clip-path="url(#SVGID_12_)" d="M14.205,209.366c-0.883-0.335-1.576-0.979-1.604-2.608h-0.7
		c0.048,0.743,0.071,1.699,0.071,2.321c0,0.717-0.048,2.104-0.071,2.725h0.7c0.027-1.241,0.649-1.744,1.2-1.744
		c0.191,0,0.335,0.071,0.478,0.119l11.53,4.378l-12.081,4.567c-0.334,0.145-0.382,0.145-0.43,0.145
		c-0.697,0-0.697-1.363-0.697-1.962h-0.7c0.071,0.861,0.071,2.512,0.071,3.421c0,1.147-0.048,2.177-0.071,3.035h0.7
		c0-1.554,0-2.008,0.911-2.343l14.663-5.548c0.454-0.168,0.525-0.287,0.525-0.598c0-0.407-0.12-0.454-0.454-0.574"/>
	<path clip-path="url(#SVGID_12_)" d="M25.8,199.985v2.173h-4.17c-0.463,0-0.579-0.018-0.629-0.451v-1.053
		c0-1.605,0-3.894,2.391-3.894c1.848,0,2.409,1.454,2.409,3.226 M26.076,197.956c-0.348-1.499-1.327-2.998-2.671-2.998
		c-1.659,0-3.005,2.207-3.005,4.797v5.632H21v-0.402c0-1.293,0.168-1.327,0.752-1.327h8.697c0.568,0,0.751,0.034,0.751,1.327v0.402
		h0.6c0-0.017-0.068-1.791-0.068-2.477c0-0.703,0.033-1.657,0.068-2.494h-0.6v0.406c0,1.302-0.168,1.336-0.755,1.336H26.3v-2.23
		c0-0.302,0-1.174,0.684-1.91c0.517-0.588,0.934-0.588,2.05-0.588c1.083,0,1.766,0,2.399-0.771c0.584-0.721,0.668-1.71,0.668-2.179
		c0-1.425-1.334-1.795-1.83-1.795c-0.114,0-0.312,0-0.312,0.284c0,0.252,0.144,0.268,0.305,0.285
		c0.934,0.084,1.335,0.637,1.335,1.155c0,0.954-0.978,1.088-2.487,1.288c-1.327,0.185-1.593,0.235-2.14,0.721
		c-0.182,0.167-0.615,0.637-0.896,1.54V197.956z"/>
	<path clip-path="url(#SVGID_12_)" d="M20.77,187.855c-0.369,0.15-0.369,0.283-0.369,0.636v2.928H21v-0.41
		c0-1.316,0.168-1.351,0.752-1.351h8.247c0.451,0,1.202,0,1.202,1.761h0.599c-0.05-0.685-0.067-1.354-0.067-2.042
		c0-0.685,0.016-1.354,0.067-2.042h-0.599c0,1.723-0.754,1.723-1.205,1.723h-8.84l10.26-4.356c0.201-0.084,0.384-0.168,0.384-0.419
		c0-0.117-0.05-0.268-0.35-0.403L21,179.458h9.448c0.568,0,0.753,0.034,0.753,1.305v0.396h0.599
		c-0.034-0.803-0.067-1.742-0.067-2.427c0-0.687,0.033-1.623,0.067-2.428h-0.599v0.408c0,1.31-0.167,1.344-0.751,1.344h-8.698
		c-0.568,0-0.752-0.034-0.752-1.344v-0.408H20.4v2.912c0,0.336,0,0.487,0.336,0.619l9.457,4.018"/>
	<path clip-path="url(#SVGID_12_)" d="M24.765,171.042c-0.336,1.466-1.393,1.916-2.098,1.916c-1.108,0-2.166-1.014-2.166-2.526
		c0-2.243,1.536-3.206,3.327-3.473c0.255-0.031,0.341-0.049,0.341-0.294c0-0.276-0.118-0.276-0.438-0.276h-3.291
		c-0.286,0-0.439,0-0.439,0.234c0,0.134,0.052,0.167,0.242,0.284l0.963,0.6c-1.154,1.1-1.205,2.484-1.205,2.951
		c0,2.101,1.507,3.602,3.199,3.602c0.936,0,1.656-0.416,2.225-1.017c0.653-0.666,0.771-1.216,1.171-3.016
		c0.335-1.515,0.402-1.849,0.87-2.333c0.386-0.382,0.921-0.734,1.674-0.734c1.171,0,2.36,0.968,2.36,2.567
		c0,1.617-0.63,3.85-3.133,3.966C28.102,173.51,28,173.51,28,173.776c0,0.284,0.118,0.284,0.45,0.284h3.218
		c0.283,0,0.433,0,0.433-0.235c0-0.134-0.05-0.168-0.195-0.268c-0.196-0.15-0.714-0.485-0.926-0.619
		c0.892-1.053,1.121-2.342,1.121-3.43c0-2.209-1.662-3.649-3.441-3.649c-1.512,0-2.939,1.051-3.324,2.717"/>
	<path clip-path="url(#SVGID_12_)" d="M11.21,153.077c-0.312-0.121-0.406-0.121-0.43-0.121c-0.262,0-0.479,0.218-0.479,0.479
		c0,0.168,0.073,0.336,0.217,0.407l22.774,8.297c0.312,0.121,0.406,0.121,0.43,0.121c0.263,0,0.478-0.216,0.478-0.479
		c0-0.31-0.167-0.382-0.573-0.526"/>
	<path clip-path="url(#SVGID_12_)" d="M27.28,142.227l-9.335,4.199c-0.385,0.166-0.385,0.285-0.385,0.358
		c0,0.023,0,0.142,0.193,0.404l1.727,2.267c0.24,0.309,0.313,0.309,0.385,0.309c0.12,0,0.264-0.07,0.264-0.238
		c0-0.143-0.336-0.549-0.528-0.811c-0.121-0.143-0.384-0.502-0.576-0.763l10.391-4.7c0.384-0.167,0.384-0.285,0.384-0.501
		c0-0.358-0.144-0.428-0.48-0.595L6.761,131.327c-0.335-0.168-0.431-0.168-0.479-0.168c-0.24,0-0.482,0.191-0.482,0.478
		c0,0.192,0.122,0.359,0.505,0.549"/>
	
		<line clip-path="url(#SVGID_12_)" fill="none" stroke="#000000" stroke-width="0.955" stroke-miterlimit="10" x1="6.344" y1="131.656" x2="6.344" y2="103.095"/>
	<path clip-path="url(#SVGID_12_)" d="M13.732,117.057c-0.863,0-1.131-0.049-1.131-1.931v-0.588h-0.7
		c0.07,0.837,0.07,2.607,0.07,3.515c0,0.91,0,2.703-0.07,3.539h0.7v-0.566c0-1.821,0.263-1.867,1.12-1.867h5.577v7.101h-5.577
		c-0.857,0-1.12-0.047-1.12-1.875v-0.569h-0.7c0.07,0.837,0.07,2.606,0.07,3.514c0,0.91,0,2.703-0.07,3.54h0.7v-0.584
		c0-1.876,0.268-1.925,1.131-1.925h12.641c0.864,0,1.127,0.049,1.127,1.925v0.584h0.7c-0.072-0.837-0.072-2.606-0.072-3.516
		c0-0.908,0-2.701,0.072-3.538h-0.7v0.569c0,1.828-0.268,1.875-1.141,1.875H20v-7.101h6.359c0.873,0,1.141,0.047,1.141,1.867v0.566
		h0.7c-0.072-0.836-0.072-2.605-0.072-3.514c0-0.91,0-2.703,0.072-3.54h-0.7v0.587c0,1.883-0.264,1.932-1.127,1.932"/>
	<path clip-path="url(#SVGID_12_)" d="M18.618,104.434c-0.263-0.215-0.312-0.215-0.406-0.215c-0.312,0-0.312,0.193-0.312,0.623
		v7.654l3.843,0.262v-0.599c-2.453-0.145-3.343-0.598-3.343-3.229v-2.726l9.031,6.67c0.265,0.216,0.313,0.216,0.432,0.216
		c0.336,0,0.336-0.168,0.336-0.623v-7.899l-4.471-0.407v0.599c2.82,0.217,3.87,0.721,3.87,3.496v2.825"/>
</g>
</svg>
